<svg width="14" height="14" viewBox="0 0 14 14" fill="none" xmlns="http://www.w3.org/2000/svg">
<g clip-path="url(#clip0_86_2223)">
<path d="M13.2298 2.65664H9.55379L9.87542 2.36863C9.89904 2.34749 9.92018 2.32383 9.93856 2.29806C10.4086 1.63903 10.2548 0.720475 9.59569 0.250441C9.2814 0.0263209 8.8855 -0.0523923 8.50947 0.0347394C8.1334 0.121778 7.81232 0.366336 7.62847 0.705649L7.00017 1.86549L6.37187 0.705649C6.18802 0.366289 5.8669 0.121684 5.49087 0.0346926C5.11475 -0.0523923 4.71885 0.0262741 4.40465 0.250394C3.74562 0.720428 3.59179 1.63898 4.06178 2.29801C4.08021 2.32383 4.10139 2.34749 4.12492 2.36859L4.44655 2.65659H0.770653C0.533531 2.65659 0.341309 2.84882 0.341309 3.08594V5.80811C0.341309 6.04524 0.533531 6.23746 0.770653 6.23746H0.884397V13.5706C0.884397 13.8078 1.07662 14 1.31374 14H12.6867C12.9238 14 13.116 13.8078 13.116 13.5706V6.23746H13.2298C13.4669 6.23746 13.6591 6.04524 13.6591 5.80811V3.08599C13.6591 2.84886 13.4669 2.65664 13.2298 2.65664ZM8.38352 1.11465C8.45115 0.989727 8.56466 0.903297 8.7031 0.87126C8.74061 0.862561 8.77816 0.858305 8.81539 0.858305C8.91557 0.858305 9.0128 0.88936 9.09713 0.949505C9.22968 1.04403 9.31742 1.18443 9.34431 1.34504C9.36886 1.49189 9.33982 1.63936 9.26241 1.76489L8.26646 2.65664H7.54822L8.38352 1.11465ZM4.65603 1.34508C4.68288 1.18457 4.77067 1.04407 4.90326 0.949552C5.01892 0.867051 5.15876 0.839223 5.29729 0.871307C5.43568 0.903297 5.54919 0.989774 5.61687 1.1147L6.45217 2.65664H5.73393L4.73793 1.76489C4.66052 1.6394 4.63148 1.49185 4.65603 1.34508ZM5.40243 13.1413H1.74304V6.23751H5.40243V13.1413ZM7.73922 13.1413H6.26112V6.23751H7.73922V13.1413ZM12.2573 13.1413H8.59796V6.23751H12.2573V13.1413ZM12.8004 5.37882H1.19995V3.51533H12.8004V5.37882H12.8004Z" fill="black"/>
</g>
<defs>
<clipPath id="clip0_86_2223">
<rect width="14" height="14" fill="white"/>
</clipPath>
</defs>
</svg>
