<svg width="48" height="48" viewBox="0 0 48 48" fill="none" xmlns="http://www.w3.org/2000/svg">
<path d="M24 48C37.2548 48 48 37.2548 48 24C48 10.7452 37.2548 0 24 0C10.7452 0 0 10.7452 0 24C0 37.2548 10.7452 48 24 48Z" fill="#0971BD"/>
<path fill-rule="evenodd" clip-rule="evenodd" d="M12.7998 17.1753C12.7998 17.1753 22.4593 22.6529 24.3342 22.6529C26.2993 22.6529 35.8542 17.2799 35.8542 17.2799L35.8696 16.3199C35.8696 15.2601 35.0094 14.3999 33.9467 14.3999H14.7217C13.66 14.3999 12.7998 15.2601 12.7998 16.3199V17.1753ZM35.8542 20.1599C35.8542 20.1599 26.3896 25.2929 24.3342 25.2929C22.4593 25.2929 12.8142 20.1599 12.8152 20.1599L12.7998 31.6799C12.7998 32.7397 13.6609 33.5999 14.7217 33.5999H33.9467C35.0094 33.5999 35.8696 32.7397 35.8696 31.6799L35.8542 20.1599Z" fill="white"/>
</svg>
