<svg width="17" height="17" viewBox="0 0 17 17" fill="none" xmlns="http://www.w3.org/2000/svg">
<path d="M15.7253 8.51995C15.7253 5.22287 13.4973 2.34748 10.3032 1.52737C9.99772 1.44768 9.68561 1.63362 9.60924 1.93909C9.52955 2.24455 9.71549 2.55666 10.021 2.63303C12.7071 3.32034 14.5831 5.74416 14.5831 8.51995C14.5831 10.967 13.1255 13.1352 10.944 14.0881L11.4719 12.8596C11.5948 12.5707 11.462 12.2354 11.1731 12.1092C10.8842 11.9864 10.5489 12.1192 10.4227 12.408L9.39342 14.8053C9.27057 15.0942 9.40338 15.4295 9.69225 15.5557L12.0895 16.585C12.4481 16.7112 12.7469 16.502 12.8399 16.2862C12.9628 15.9973 12.8299 15.6619 12.5411 15.5358L11.4985 15.0875C14.0385 13.9387 15.7253 11.3887 15.7253 8.51995Z" fill="black"/>
<path d="M6.98603 14.4068C4.2999 13.7162 2.42393 11.2957 2.42393 8.51993C2.42393 6.10607 3.8417 3.96446 5.97334 2.99161L5.47861 4.14044C5.35576 4.42931 5.48193 4.77794 5.77744 4.89083C6.12275 5.02032 6.41494 4.86427 6.52783 4.592L7.55713 2.19142C7.65674 1.959 7.65342 1.61036 7.2583 1.44103L4.86104 0.41173C4.57217 0.288878 4.23682 0.421691 4.11064 0.710558C3.98779 0.999425 4.12061 1.33478 4.40947 1.46095L5.5251 1.93907C2.9751 3.09122 1.28174 5.64454 1.28174 8.51993C1.28174 11.817 3.51299 14.6891 6.70381 15.5125C7.08896 15.6121 7.33135 15.3598 7.39775 15.1008C7.47412 14.7953 7.2915 14.4865 6.98603 14.4068Z" fill="black"/>
<path d="M9.84834 10.6714C10.1405 10.366 10.2866 9.98081 10.2866 9.52261C10.2866 9.31343 10.2501 9.12085 10.1804 8.94155C10.1106 8.76226 10.011 8.60952 9.88154 8.47671C9.75205 8.34722 9.58271 8.23765 9.37685 8.14468C9.26728 8.09819 9.04814 8.03179 8.71279 7.94878V6.04292C8.92861 6.08608 9.09795 6.17905 9.22412 6.31851C9.34697 6.45796 9.42998 6.65718 9.46982 6.91616L10.1538 6.81323C10.094 6.39487 9.92139 6.06284 9.63252 5.82378C9.40674 5.63452 9.10127 5.52163 8.71611 5.48511V5.16968H8.32432V5.48511C7.88603 5.52827 7.554 5.65112 7.33154 5.84702C6.99619 6.13921 6.83018 6.52105 6.83018 6.99253C6.83018 7.25815 6.88662 7.4939 7.00283 7.70308C7.11572 7.91226 7.27842 8.07495 7.49092 8.19116C7.77646 8.35054 8.05537 8.45679 8.32764 8.50659V10.615C8.06865 10.5884 7.84287 10.4556 7.65693 10.2199C7.52744 10.0539 7.43447 9.79155 7.38467 9.43628L6.71729 9.56245C6.74053 9.90444 6.83018 10.1966 6.97959 10.4357C7.129 10.6748 7.3083 10.8474 7.51748 10.9537C7.72334 11.0599 7.99561 11.133 8.32432 11.1761V11.8369H8.71611V11.1662C9.18096 11.1429 9.55947 10.9769 9.84834 10.6714ZM8.32764 7.86577C8.02549 7.77612 7.81299 7.65327 7.68682 7.50054C7.56064 7.3478 7.49756 7.15855 7.49756 6.93276C7.49756 6.70366 7.57061 6.50776 7.72002 6.34175C7.86943 6.17573 8.07197 6.0728 8.32764 6.03296V7.86577ZM9.35361 10.2763C9.18428 10.4689 8.97178 10.5785 8.71611 10.6117V8.59624C9.07139 8.71245 9.31045 8.84194 9.42998 8.98804C9.54951 9.13413 9.60928 9.32671 9.60928 9.56909C9.60596 9.848 9.52295 10.0871 9.35361 10.2763Z" fill="black"/>
</svg>
