<svg width="20" height="20" viewBox="0 0 20 20" fill="none" xmlns="http://www.w3.org/2000/svg">
<g clip-path="url(#clip0_86_2243)">
<path d="M7.19287 7.34728L8.77183 5.76832L7.71921 4.7157L2.45605 9.9789L9.64874 17.1717C9.64879 17.1717 9.64889 17.1718 9.64894 17.1719C9.93923 17.4621 10.4115 17.4621 10.7017 17.1719C10.8423 17.0313 10.9197 16.8444 10.9197 16.6456C10.9197 16.447 10.8424 16.2602 10.702 16.1197C10.7019 16.1195 10.7018 16.1195 10.7017 16.1194C10.7016 16.1193 10.7016 16.1192 10.7015 16.1191L9.64899 15.0667C9.35831 14.776 9.35831 14.3048 9.64894 14.0141C9.93957 13.7234 10.4109 13.7234 10.7016 14.0141L11.7543 15.0667C11.7544 15.0668 11.7545 15.0669 11.7546 15.0671C12.0449 15.3569 12.5168 15.3568 12.8069 15.0667C13.0971 14.7765 13.0971 14.3043 12.8069 14.0141C12.8067 14.0139 12.8065 14.0136 12.8062 14.0134L11.7543 12.9615C11.4636 12.6708 11.4636 12.1995 11.7543 11.9088C12.0449 11.6182 12.5162 11.6182 12.8069 11.9088L13.8593 12.9612C13.8596 12.9614 13.8598 12.9617 13.86 12.9619C14.1503 13.2515 14.6219 13.2514 14.9119 12.9617C14.912 12.9616 14.9121 12.9615 14.9122 12.9614L14.9127 12.9609C15.0529 12.8203 15.1302 12.6337 15.1302 12.4351C15.1303 12.2365 15.0531 12.05 14.9128 11.9095L14.5613 11.5579C14.5612 11.5578 14.5611 11.5577 14.561 11.5576L11.9298 8.92633L10.3508 10.5053C10.3508 10.5053 10.3508 10.5053 10.3508 10.5053C9.91551 10.9406 9.34372 11.1583 8.77193 11.1583C8.20009 11.1583 7.6283 10.9406 7.19297 10.5052C6.32256 9.63478 6.32246 8.21853 7.19258 7.34782C7.19258 7.34762 7.19273 7.34742 7.19287 7.34728Z" fill="black"/>
<path d="M6.44514 3.88475L6.66675 3.66314L5.61403 2.61047L0 8.22455L1.05262 9.27717L6.44514 3.88475Z" fill="black"/>
<path d="M10.3513 6.29411C10.3511 6.29431 10.3509 6.29451 10.3508 6.2947C10.3506 6.2949 10.3504 6.29505 10.3502 6.2952L8.24556 8.3999C8.24546 8.39995 8.24546 8.39995 8.24541 8.4C7.95527 8.69028 7.95532 9.16243 8.24546 9.45257C8.53575 9.74275 9.00794 9.7428 9.29818 9.45252L11.4034 7.34728C11.543 7.20769 11.7324 7.12924 11.9297 7.12924C12.1272 7.12924 12.3165 7.20769 12.456 7.34728L15.6138 10.505C15.6138 10.5051 15.6139 10.5051 15.6139 10.5051L15.9646 10.8559C15.9647 10.8559 15.9647 10.8559 15.9648 10.856C15.9648 10.856 15.9649 10.8561 15.965 10.8562L16.4911 11.3823L17.5437 10.3297L11.9297 4.7157L10.3513 6.29411Z" fill="black"/>
<path d="M12.9824 3.66329L18.9473 9.62817L19.9999 8.57555L14.035 2.61067L12.9824 3.66329Z" fill="black"/>
</g>
<defs>
<clipPath id="clip0_86_2243">
<rect width="20" height="20" fill="white"/>
</clipPath>
</defs>
</svg>
